# xmcd
#
# Track frame offsets:
#	150
#	14387
#	28585
#	48017
#	60435
#	74795
#	89090
#	102120
#	118122
#	132197
#	149657
#	164327
#	176005
#	188450
#
# Disc length: 2675
#
# Revision: 1
# Processed by: cddbd v1.5.1PL0 Copyright (c) Steve Scherf et al.
# Submitted via: VisiTrax 2.9.3.171 - For more info visit www.synapsa.com
# Normalized: r0:DSETVAR1
#
DISCID=c40a710e
DTITLE=Various Artist - Mr Music Country 12-99
DYEAR=1900
DGENRE=
TTITLE0=Mike Bella - It's So Close To Christmas
TTITLE1=The Geezingslaws - Wedding Bells
TTITLE2=Gene Watson - Change Her Mind
TTITLE3=The Whites - Give a Little Back
TTITLE4=The Tractors - Swingin' Home For Christmas
TTITLE5=Brooks and Dunn - Cabin In the Valley
TTITLE6=Alan Jackson - Rudolph The Red Nosed Reindeer
TTITLE7=Reno Brothers - Morning Memories
TTITLE8=Dawnett Faucett - Slow Dancin'
TTITLE9=Don Cox - Long Way Past Goodbye
TTITLE10=Dean Chance with Lisa van Wye - Will You Stay With Me
TTITLE11=Clinton Gregory - Christmas In Texas
TTITLE12=Ray Price - With Christmas Near
TTITLE13=Alabama - New Year's Eve 1999
EXTD=
EXTT0=
EXTT1=
EXTT2=
EXTT3=
EXTT4=
EXTT5=
EXTT6=
EXTT7=
EXTT8=
EXTT9=
EXTT10=
EXTT11=
EXTT12=
EXTT13=
PLAYORDER=
